<?xml version="1.0" encoding="UTF-8" standalone="no"?>
<!-- Created with Inkscape (http://www.inkscape.org/) -->

<svg
   width="210mm"
   height="297mm"
   viewBox="0 0 210 297"
   version="1.1"
   id="svg22898"
   sodipodi:docname="CircleLogo.svg"
   inkscape:version="1.1.2 (b8e25be833, 2022-02-05)"
   inkscape:export-filename="C:\chapman\dev\ABFarm\ABFarm-ui\src\assets\logos\CircleLogo.png"
   inkscape:export-xdpi="96"
   inkscape:export-ydpi="96"
   xmlns:inkscape="http://www.inkscape.org/namespaces/inkscape"
   xmlns:sodipodi="http://sodipodi.sourceforge.net/DTD/sodipodi-0.dtd"
   xmlns="http://www.w3.org/2000/svg"
   xmlns:svg="http://www.w3.org/2000/svg">
  <sodipodi:namedview
     id="namedview22900"
     pagecolor="#ffffff"
     bordercolor="#666666"
     borderopacity="1.0"
     inkscape:pageshadow="2"
     inkscape:pageopacity="0.0"
     inkscape:pagecheckerboard="0"
     inkscape:document-units="mm"
     showgrid="false"
     inkscape:zoom="0.7198092"
     inkscape:cx="84.050051"
     inkscape:cy="576.54167"
     inkscape:window-width="1836"
     inkscape:window-height="991"
     inkscape:window-x="74"
     inkscape:window-y="0"
     inkscape:window-maximized="0"
     inkscape:current-layer="layer1" />
  <defs
     id="defs22895" />
  <g
     inkscape:label="Layer 1"
     inkscape:groupmode="layer"
     id="layer1">
    <g
       aria-label="FOREST GROVE, OREGON"
       id="text28754"
       style="font-size:12.7px;line-height:1.25;font-family:'Lucida Handwriting';-inkscape-font-specification:'Lucida Handwriting, Normal';fill:#e6e6e6;stroke-width:0.264583"
       transform="translate(1.470297,-1.1027228)">
      <path
         d="m 38.921584,172.95601 -3.896696,1.97722 q -0.53583,0.2717 -0.672285,0.37907 -0.136455,0.10737 -0.242553,0.29343 -0.635843,-0.29664 -0.957954,-0.70601 -0.199403,-0.25341 0.0053,-0.41447 0.107214,-0.0844 0.680993,-0.37803 l 4.277937,-2.17462 -0.05752,-0.0731 q -0.345119,-0.43861 -0.953479,-0.78055 0.704477,-0.16768 0.992561,-0.1024 0.296792,0.0663 0.611234,0.46593 l 0.103536,0.13158 3.374446,-1.70832 -0.08436,-0.10721 q -0.835956,-1.0624 -1.91056,-1.23474 0.919547,-0.41582 1.545964,-0.15121 0.441072,0.18951 1.798541,1.91469 l 1.008515,1.2817 q 1.127389,1.43278 2.128564,2.18369 -0.768948,0.11583 -1.21002,-0.0737 -0.432365,-0.18847 -0.969217,-0.87075 l -0.332576,-0.43269 -1.173405,-1.49126 -3.370612,1.7132 0.828286,1.05265 q 0.770766,0.97955 1.521649,1.4224 -0.734756,0.19939 -1.127415,0.0112 -0.388824,-0.18328 -1.090566,-1.07511 z"
         id="path32143" />
      <path
         d="m 47.697724,176.56647 q 1.591637,-0.1957 2.682527,0.94048 0.931981,0.97066 0.8308,2.27996 -0.09671,1.305 -1.179204,2.34435 -1.686369,1.61916 -4.374375,1.5952 -2.688007,-0.024 -4.268509,-1.67006 -1.138133,-1.18538 -1.098344,-2.71083 0.04856,-1.52527 1.251828,-2.68058 1.306153,-1.2541 3.091772,-1.28358 1.789913,-0.025 3.063505,1.18506 z m -0.813979,0.12818 q -0.956827,-0.61154 -2.061218,-0.43663 -1.104392,0.1749 -2.070587,1.10259 -1.078023,1.03506 -1.179026,2.33558 -0.09653,1.29624 0.835451,2.2669 1.116659,1.16302 3.071722,0.99664 1.955063,-0.16638 3.399882,-1.55362 0.840948,-0.80743 0.988319,-1.80001 0.147371,-0.99257 -0.475382,-1.64118 -0.631342,-0.65755 -1.63196,-0.62526 -0.996145,0.028 -1.729737,0.73234 -0.518883,0.4982 -0.721033,1.16512 -0.378675,-0.57347 -0.363133,-0.90647 0.01984,-0.32854 0.462677,-0.75373 0.577034,-0.55403 1.474025,-0.88227 z"
         id="path32145" />
      <path
         d="m 50.277853,182.28052 q -0.0092,-0.38665 0.248487,-0.69661 0.658067,-0.79158 2.568886,-0.3643 1.915588,0.43125 3.451064,1.70775 2.365205,1.96627 1.112498,3.47313 -0.606532,0.72959 -1.544908,0.82042 -0.929643,0.09 -2.653166,-0.40735 -1.020837,3.54632 -0.195876,4.23214 0.433939,0.36075 1.437295,0.16266 -0.07526,0.13903 -0.114907,0.18672 -0.332998,0.40056 -1.165833,0.44203 -0.828871,0.0367 -1.267578,-0.328 -1.115843,-0.92764 0.149688,-5.02051 -0.312198,-0.13858 -0.517246,-0.30904 -0.10014,-0.0833 -0.15426,-0.19275 0.925682,-0.75458 1.645735,-0.15598 0.143057,0.11893 0.305302,0.35058 2.000156,0.77573 3.011043,-0.44025 0.372641,-0.44824 0.162252,-1.107 -0.201656,-0.65956 -0.893097,-1.23437 -1.173066,-0.97521 -2.743133,-1.28857 -1.566103,-0.31812 -2.842246,0.1693 z m -2.437865,6.42459 q -0.68857,-0.16116 -1.084361,-0.49019 -0.247965,-0.20615 -0.08147,-0.40643 0.08721,-0.1049 0.60521,-0.50489 l 4.752969,-3.85482 q 0.414063,-0.33317 0.560741,-0.50961 0.138749,-0.1669 0.139267,-0.40033 0.832432,0.28882 1.080397,0.49496 0.300419,0.24975 0.01499,0.59309 -0.06739,0.0811 -0.851108,0.70368 l -4.368264,3.53757 q -0.459279,0.36816 -0.609921,0.54936 -0.08325,0.10014 -0.158456,0.28761 z"
         id="path32147" />
      <path
         d="m 59.253129,190.90032 -1.157826,1.13988 q -0.722102,0.70879 -0.955774,1.05233 -0.463857,0.68196 0.859028,1.58177 1.312629,0.89284 2.62986,1.10633 -0.753883,0.61217 -1.409206,0.42892 -0.396271,-0.11205 -1.272883,-0.54332 -0.8801,-0.42614 -1.310806,-0.7191 -1.67668,-1.14046 -0.91986,-2.25312 0.202283,-0.29739 0.941824,-1.03182 l 1.518876,-1.49428 -0.07691,-0.0523 q -0.517873,-0.35226 -1.158438,-0.45797 0.658676,-0.36195 0.942766,-0.39371 0.289218,-0.0283 0.684033,0.24028 l 0.169206,0.1151 2.221901,-2.18605 -0.148696,-0.10114 q -0.948581,-0.64522 -2.170262,-0.59123 0.814397,-0.64601 1.420918,-0.57845 0.470735,0.0577 2.270473,1.28187 l 1.527984,1.03932 q 1.445943,0.98351 2.543685,1.3102 -0.841026,0.36541 -1.253095,0.28762 -0.406941,-0.0743 -1.458071,-0.78928 l -1.656169,-1.12651 -2.227029,2.18257 1.061385,0.72194 q 1.112659,0.75682 1.965922,0.92471 -0.791599,0.41403 -1.154033,0.3625 -0.362434,-0.0515 -1.367417,-0.73511 z"
         id="path32149" />
      <path
         d="m 62.408289,195.80787 q -0.49983,0.87856 -0.305304,1.65274 0.199916,0.77725 1.051527,1.26174 0.754592,0.4293 1.567337,0.29239 0.812745,-0.13691 1.159252,-0.74597 0.37104,-0.65219 -0.202392,-2.49094 l -0.280117,-0.88708 q -0.536256,-1.70345 -0.03029,-2.59279 0.588756,-1.03486 1.777486,-1.24325 1.18873,-0.20839 2.439197,0.50303 0.662963,0.37717 0.956074,0.81503 0.296177,0.43248 0.112191,0.75588 -0.18092,0.31801 -0.71116,0.57283 0.04624,-1.17229 -1.010191,-1.77331 -0.657573,-0.37411 -1.343378,-0.22205 -0.677348,0.14973 -1.017723,0.74801 -0.226917,0.39886 -0.200979,0.69186 0.03133,0.29607 0.400385,1.44065 l 0.230581,0.72335 q 0.623711,1.98864 0.06562,2.96961 -0.650085,1.14267 -1.984897,1.3821 -1.331746,0.23404 -2.706181,-0.54791 -0.92168,-0.52436 -1.280039,-1.29899 -0.352968,-0.77157 0.02114,-1.42915 0.254514,-0.44736 1.291867,-0.57778 z"
         id="path32151" />
      <path
         d="m 75.259494,195.60975 -4.211406,5.76425 q -0.352139,0.47923 -0.427802,0.64237 -0.07305,0.15752 -0.08341,0.37145 -0.712499,0.0182 -1.173797,-0.19577 -0.292531,-0.13567 -0.18295,-0.37195 0.05479,-0.11813 0.436038,-0.64539 l 4.461956,-6.11287 -0.781957,-0.36266 q -1.333264,-0.61835 -2.418274,-0.81396 0.532652,-0.6621 0.933784,-0.70164 0.401133,-0.0395 1.464369,0.45358 l 3.808523,1.76635 q 1.535786,0.71227 2.544826,-0.16637 0.04296,0.42323 -0.05097,0.62575 -0.33918,0.73133 -1.451017,0.75569 -0.668309,0.0113 -2.192843,-0.69574 z"
         id="path32153" />
      <path
         d="m 88.310195,203.45192 -1.99352,3.19234 q -1.222501,1.95534 -1.625501,2.21532 -0.404803,0.26591 -1.711679,-0.0403 0.919398,-0.67994 2.225891,-2.35702 -1.637405,0.8248 -2.984321,0.41573 -1.364717,-0.41448 -1.983163,-1.60036 -0.610711,-1.19001 -0.183618,-2.59627 0.68479,-2.25475 3.132941,-3.42307 2.455886,-1.17246 4.924244,-0.4228 1.643594,0.49918 1.443563,1.1578 -0.0847,0.27888 -0.852548,0.75857 -0.07916,0.0472 -0.225608,0.14535 -0.116203,-1.11111 -1.403784,-1.50217 -1.726664,-0.5244 -3.414526,0.46654 -1.687863,0.99094 -2.25732,2.86594 -0.38204,1.25791 0.02992,2.2061 0.417893,0.94999 1.479999,1.27256 0.955302,0.29013 1.88538,-0.21158 0.930078,-0.50171 1.535044,-1.64007 l 0.124958,-0.24072 q -1.833468,-0.55685 -3.090285,-0.38768 0.456141,-0.69102 0.830088,-0.79131 0.375749,-0.10623 1.541495,0.13116 l 0.759714,0.16592 q 0.899791,0.19551 1.812637,0.21999 z"
         id="path32155" />
      <path
         d="m 88.831566,202.64414 q -0.194052,-0.33456 -0.117244,-0.73025 0.196154,-1.01054 2.076913,-1.5551 1.886846,-0.54338 3.847036,-0.16289 3.019424,0.5861 2.646021,2.50977 -0.180793,0.93139 -0.959779,1.46241 -0.771717,0.52611 -2.521988,0.91913 0.810922,3.60013 1.864068,3.80456 0.553966,0.10753 1.338323,-0.54879 8.96e-4,0.1581 -0.01092,0.21897 -0.09926,0.51136 -0.809457,0.94834 -0.709016,0.4309 -1.26907,0.32219 -1.424486,-0.27651 -2.283791,-4.4735 -0.340365,0.0287 -0.602129,-0.0221 -0.127839,-0.0248 -0.227961,-0.0948 0.448571,-1.10682 1.367791,-0.92839 0.182626,0.0354 0.436299,0.16049 2.126697,-0.28205 2.428019,-1.83437 0.111075,-0.57223 -0.390255,-1.04856 -0.494061,-0.48123 -1.376756,-0.65257 -1.497536,-0.29069 -3.024753,0.18984 -1.526034,0.47445 -2.410367,1.51564 z m 0.953144,6.80514 q -0.681194,0.18994 -1.18646,0.0919 -0.316553,-0.0614 -0.266923,-0.31712 0.026,-0.13393 0.28772,-0.73376 l 2.312649,-5.66587 q 0.202748,-0.49127 0.246469,-0.71651 0.04136,-0.21306 -0.07048,-0.41796 0.868727,-0.14722 1.185279,-0.0858 0.383516,0.0744 0.298437,0.51275 -0.02009,0.10348 -0.407679,1.02632 l -2.127985,5.20268 q -0.225558,0.54369 -0.27046,0.77502 -0.02482,0.12783 -5.71e-4,0.32836 z"
         id="path32157" />
      <path
         d="m 102.74862,202.49578 q 1.05839,-1.20475 2.62869,-1.08188 1.34155,0.10498 2.13682,1.14998 0.79575,1.03883 0.67868,2.53494 -0.18237,2.33072 -2.20556,4.10065 -2.02319,1.76992 -4.29827,1.5919 -1.6383,-0.12819 -2.623181,-1.29378 -0.97821,-1.17128 -0.848081,-2.83431 0.141255,-1.80523 1.455053,-3.01487 1.319979,-1.20916 3.075849,-1.15263 z m -0.52258,0.6371 q -1.12125,0.17973 -1.82961,1.04488 -0.708374,0.86515 -0.812865,2.20052 -0.116584,1.48993 0.672985,2.52827 0.79005,1.03216 2.13161,1.13714 1.60739,0.12577 2.95666,-1.2988 1.34928,-1.42457 1.50553,-3.42145 0.0909,-1.16227 -0.45918,-2.00149 -0.55012,-0.83922 -1.44655,-0.90936 -0.9088,-0.0711 -1.63453,0.61851 -0.72526,0.68345 -0.80459,1.69734 -0.0561,0.71714 0.2365,1.34961 -0.66419,-0.17637 -0.87407,-0.43538 -0.20369,-0.25852 -0.1558,-0.87057 0.0624,-0.79751 0.51391,-1.63922 z"
         id="path32159" />
      <path
         d="m 110.55475,211.09706 q 0.0995,-0.6727 0.0743,-1.59013 -0.0567,-2.07042 -0.8857,-5.16188 -0.38735,-1.45963 -0.66195,-1.9732 -0.26858,-0.51995 -0.81721,-0.84613 0.60776,-0.68661 1.01689,-0.69781 0.78105,-0.0214 1.5566,2.47602 1.01992,3.26614 1.09797,6.11761 3.75053,-5.30739 3.69776,-7.23523 -0.007,-0.27275 -0.15699,-0.523 0.51103,-0.36759 1.05653,-0.38252 0.49591,-0.0136 0.50897,0.46374 0.0226,0.82445 -0.99223,2.73188 -1.01496,1.90124 -2.83121,4.44475 -0.95015,1.32254 -1.35665,1.65625 -0.40047,0.32734 -1.30712,0.51965 z"
         id="path32161" />
      <path
         d="m 119.3216,205.67259 -0.12845,1.61969 q -0.0815,1.00855 -0.0331,1.4212 0.0961,0.81914 1.68509,0.63276 1.57669,-0.18494 2.71195,-0.88627 -0.16879,0.95635 -0.78404,1.24704 -0.37284,0.17485 -1.31775,0.42305 -0.94418,0.25435 -1.46153,0.31503 -2.01398,0.23622 -2.17074,-1.10027 -0.0419,-0.35722 0.036,-1.39656 l 0.1692,-2.12397 -0.0924,0.0108 q -0.62205,0.073 -1.17537,0.41258 0.26073,-0.7049 0.45462,-0.91495 0.20005,-0.21078 0.67429,-0.2664 l 0.20324,-0.0238 0.24744,-3.10716 -0.17861,0.0209 q -1.13941,0.13365 -2.02728,0.97454 0.19236,-1.02155 0.69496,-1.36771 0.39353,-0.26469 2.55532,-0.51825 l 1.83536,-0.21528 q 1.73683,-0.20371 2.78035,-0.67576 -0.39626,0.82694 -0.75861,1.03802 -0.35619,0.21036 -1.61877,0.35845 l -1.98935,0.23334 -0.25359,3.10788 1.2749,-0.14954 q 1.3365,-0.15676 2.09127,-0.58869 -0.32706,0.83131 -0.63471,1.02973 -0.30764,0.19842 -1.51479,0.34001 z"
         id="path32163" />
      <path
         d="m 125.11947,210.77509 q 0.20913,0.005 0.34325,-0.0198 0.43282,-0.0807 0.6683,-0.50938 0.23661,-0.4226 0.14001,-0.94077 -0.14207,-0.76202 -0.9946,-1.13926 0.55826,-0.55825 1.07034,-0.65372 0.84736,-0.15798 1.03035,0.82349 0.17502,0.93881 -0.34708,1.89404 -0.516,0.95409 -1.27802,1.09616 -0.42673,0.0796 -0.63255,-0.55072 z"
         id="path32165" />
      <path
         d="m 135.1604,198.55844 q 0.51327,-1.51926 2.00993,-2.01013 1.27864,-0.41937 2.4148,0.23913 1.13424,0.65261 1.60192,2.07856 0.72857,2.22141 -0.45771,4.6336 -1.18629,2.4122 -3.35467,3.12338 -1.56147,0.51213 -2.91905,-0.1847 -1.35361,-0.70465 -1.87347,-2.28969 -0.56431,-1.72056 0.18282,-3.34263 0.75302,-1.624 2.39543,-2.24752 z m -0.23717,0.78914 q -0.96573,0.59737 -1.28663,1.66849 -0.32089,1.07112 0.0966,2.34387 0.46574,1.42006 1.59408,2.07459 1.12641,0.64865 2.40505,0.22928 1.53201,-0.50246 2.22918,-2.33656 0.69716,-1.8341 0.0729,-3.73732 -0.36332,-1.10776 -1.19403,-1.67066 -0.83071,-0.5629 -1.6851,-0.28268 -0.86617,0.28409 -1.27064,1.19989 -0.4064,0.90991 -0.0895,1.87625 0.22418,0.68351 0.73765,1.15467 -0.68092,0.0928 -0.9743,-0.0655 -0.2875,-0.16023 -0.47882,-0.74357 -0.2493,-0.76012 -0.15647,-1.71076 z"
         id="path32167" />
      <path
         d="m 141.39787,198.71289 q -0.35328,-0.15743 -0.52286,-0.52309 -0.4331,-0.93386 0.772,-2.47708 1.21072,-1.54583 3.02217,-2.38594 2.7903,-1.29407 3.61475,0.48362 0.39918,0.86072 0.079,1.74745 -0.31715,0.8785 -1.50529,2.22246 2.76644,2.4424 3.73967,1.99104 0.51193,-0.23742 0.76304,-1.22883 0.0934,0.12759 0.11944,0.18385 0.21916,0.47255 -0.10036,1.24277 -0.32212,0.7646 -0.83968,1.00463 -1.31639,0.61051 -4.47173,-2.28724 -0.25903,0.22266 -0.50093,0.33485 -0.11814,0.0548 -0.24027,0.0567 -0.28496,-1.15978 0.56451,-1.55374 0.16877,-0.0783 0.4476,-0.12556 1.55821,-1.47458 0.89291,-2.90911 -0.24524,-0.52881 -0.93059,-0.62109 -0.68234,-0.10053 -1.49805,0.27778 -1.3839,0.64182 -2.34001,1.92602 -0.95871,1.27857 -1.06534,2.64046 z m 4.75947,4.9564 q -0.44075,0.55303 -0.90768,0.76958 -0.29253,0.13566 -0.40211,-0.10061 -0.0574,-0.12376 -0.19674,-0.76321 l -1.44541,-5.94653 q -0.12352,-0.5169 -0.22006,-0.72505 -0.0913,-0.1969 -0.30199,-0.29742 0.61776,-0.62828 0.91029,-0.76395 0.35441,-0.16437 0.54226,0.24067 0.0444,0.0956 0.27093,1.07058 l 1.32369,5.46297 q 0.13575,0.57275 0.2349,0.78653 0.0548,0.11814 0.19192,0.26644 z"
         id="path32169" />
      <path
         d="m 153.01105,194.29194 0.53884,1.53282 q 0.33413,0.95508 0.54558,1.31273 0.41974,0.70996 1.79695,-0.10428 1.36654,-0.80792 2.12026,-1.90908 0.23318,0.94272 -0.21152,1.45777 -0.27002,0.31092 -1.03332,0.92068 -0.76015,0.6151 -1.20854,0.8802 -1.74554,1.03199 -2.43038,-0.12636 -0.18304,-0.30961 -0.53295,-1.29137 l -0.70591,-2.01037 -0.0801,0.0473 q -0.53914,0.31875 -0.90739,0.85344 -0.0473,-0.75008 0.0449,-1.02068 0.0975,-0.27376 0.50852,-0.51676 l 0.17616,-0.10415 -1.03275,-2.94093 -0.1548,0.0915 q -0.98754,0.58385 -1.45855,1.71238 -0.23805,-1.01189 0.0812,-1.532 0.25253,-0.40144 2.12618,-1.50917 l 1.59073,-0.94047 q 1.50533,-0.88998 2.26809,-1.74435 -0.0272,0.91657 -0.27296,1.25637 -0.24041,0.33664 -1.33471,0.9836 l -1.72418,1.01937 1.02741,2.94409 1.10497,-0.65328 q 1.15835,-0.68484 1.67338,-1.38555 0.0378,0.89254 -0.16304,1.19859 -0.20086,0.30606 -1.24712,0.92462 z"
         id="path32171" />
      <path
         d="m 163.47327,186.604 1.3375,3.51798 q 0.81836,2.15596 0.78178,2.63415 -0.0329,0.4832 -1.06695,1.33905 0.0143,-1.14342 -0.53166,-3.19804 -0.333,1.80291 -1.47318,2.62844 -1.15526,0.83645 -2.47376,0.61207 -1.31711,-0.23303 -2.17901,-1.42345 -1.38195,-1.90868 -0.8324,-4.56507 0.55094,-2.66505 2.64044,-4.17792 1.39132,-1.00737 1.795,-0.44983 0.17092,0.23607 0.0888,1.13771 -0.0102,0.0916 -0.0206,0.26758 -0.95529,-0.57922 -2.04525,0.20994 -1.46165,1.05828 -1.69282,3.00184 -0.23117,1.94355 0.91803,3.53077 0.77098,1.06484 1.77531,1.30998 1.00935,0.2415 1.90844,-0.40947 0.80867,-0.58551 0.97137,-1.62968 0.1627,-1.04417 -0.37827,-2.2143 l -0.1162,-0.24507 q -1.55205,1.12374 -2.17718,2.22711 -0.27463,-0.78112 -0.12843,-1.13962 0.14256,-0.36352 1.03646,-1.14854 l 0.59149,-0.50482 q 0.69974,-0.59851 1.27115,-1.31081 z"
         id="path32173" />
      <path
         d="m 164.89837,181.1281 q -0.15018,-1.59658 1.01668,-2.65459 0.99688,-0.90389 2.30275,-0.76537 1.30171,0.13393 2.30973,1.24566 1.57036,1.7319 1.46967,4.41813 -0.10068,2.68622 -1.79125,4.21909 -1.21738,1.10383 -2.74107,1.0205 -1.52327,-0.0921 -2.64376,-1.32784 -1.21629,-1.34142 -1.19478,-3.12716 0.0261,-1.78989 1.27203,-3.02842 z m 0.10489,0.81731 q -0.6386,0.93897 -0.4953,2.04791 0.14331,1.10893 1.04303,2.10122 1.00386,1.10713 2.30097,1.24522 1.29295,0.1335 2.28983,-0.77039 1.19442,-1.083 1.08392,-3.04202 -0.11049,-1.95901 -1.45591,-3.44285 -0.7831,-0.86366 -1.77107,-1.0393 -0.98796,-0.17565 -1.65408,0.42833 -0.67531,0.61231 -0.6716,1.61345 -4.6e-4,0.99653 0.68266,1.74994 0.48319,0.53289 1.14406,0.754 -0.58405,0.36215 -0.91647,0.3371 -0.32783,-0.0292 -0.7402,-0.484 -0.53734,-0.59262 -0.83984,-1.49861 z"
         id="path32175" />
      <path
         d="m 171.61063,176.15903 2.47609,3.20002 q 0.70461,0.90947 1.13957,1.28816 0.65009,0.56601 1.23368,0.42456 -0.20685,0.56812 -0.51225,0.91889 -0.45606,0.52381 -0.93778,0.1044 -0.45834,-0.39905 -2.36369,-3.03638 l -2.37715,-3.29478 -0.48289,-0.18198 q -0.98388,-0.3715 -1.49594,-0.0856 0.29502,-1.00936 0.4579,-1.19643 0.27282,-0.31336 0.70184,-0.21116 0.42842,0.0934 4.37686,1.38517 4.4342,1.45153 4.81289,1.01658 0.28096,-0.32271 -0.82937,-1.82387 -1.11095,-1.5099 -2.56547,-2.77628 -1.16923,-1.018 -2.02327,-0.78313 0.0717,-0.74337 0.39335,-1.11285 0.48457,-0.55655 1.39189,0.23341 0.72025,0.62708 1.98762,2.17452 1.27145,1.54276 2.03388,2.71635 1.23561,1.91445 0.72662,2.49906 -0.43978,0.50511 -1.83331,0.31138 -1.39415,-0.20249 -4.49193,-1.2058 -1.00242,-0.32187 -1.34802,-0.42544 z"
         id="path32177" />
    </g>
    <g
       aria-label="APPLE BLOSSOM FARM"
       id="text36845"
       style="font-size:10.5833px;line-height:1.25;stroke-width:0.264583"
       transform="matrix(1.077776,0,0,1.2940034,-7.0869398,-43.947592)">
      <path
         d="m 40.936298,120.98996 0.121442,0.23698 q 0.742758,1.47732 1.397166,1.9374 0.192771,0.13552 0.478825,0.1168 -0.04501,0.15029 -0.187338,0.68697 -0.06807,0.24778 -0.1929,0.42533 -0.249656,0.35511 -0.589542,0.11615 -0.705137,-0.49574 -1.533916,-2.38981 l -0.148158,-0.33916 -0.181891,0.25872 q -0.584907,0.83196 -0.647173,1.47042 -0.689699,-0.84117 0.045,-1.88619 l 0.457465,-0.61834 -0.106622,-0.27963 q -0.63727,-1.63815 -1.509387,-4.69974 -0.296096,-1.03442 -0.270912,-1.42606 0.02518,-0.39163 0.441024,-1.27423 0.809698,0.78909 1.596002,1.34189 2.084973,1.46584 4.564566,2.48897 1.362377,0.56364 2.083879,0.25979 0.136531,0.80854 -0.102425,1.14843 -0.563507,0.80152 -3.619753,-0.69525 -0.49716,0.90123 -1.096333,1.75348 z m -0.341817,-0.7861 0.745798,-1.0069 q 0.738266,-1.0501 1.059561,-1.65805 -1.944657,-1.01849 -3.116503,-1.84235 L 38.906434,115.424 q 0.09537,0.3172 0.39543,1.3999 0.551764,1.96462 1.16967,3.13433 z"
         style="font-size:12.7px;font-family:'Lucida Handwriting';-inkscape-font-specification:'Lucida Handwriting, Normal';fill:#ececec"
         id="path41312" />
      <path
         d="m 47.515224,112.31758 1.635803,2.24342 q 0.354171,0.48528 0.482049,0.60273 0.127879,0.11745 0.328557,0.19232 -0.199143,0.68434 -0.543117,1.05884 -0.21813,0.23749 -0.409947,0.0613 -0.100475,-0.0923 -0.486988,-0.61569 l -1.952694,-2.67762 q -1.321607,0.91636 -1.828553,0.45074 -0.105043,-0.0965 -0.227509,-0.29316 0.859508,-0.11991 1.68819,-0.65545 l -1.290767,-1.76653 q -0.316889,-0.4342 -0.481304,-0.58521 -0.159848,-0.14682 -0.392968,-0.15886 0.329554,-0.81716 0.547684,-1.05465 0.260078,-0.28315 0.588907,0.0189 0.07764,0.0713 0.66081,0.88481 l 1.313975,1.79626 q 1.208102,-1.31532 1.327226,-2.74675 0.119124,-1.43144 -0.894767,-2.36269 -0.557183,-0.51176 -1.297848,-0.38374 -0.741036,0.11926 -1.39962,0.8363 -1.963167,2.13739 -1.360002,5.07423 -0.383834,-0.15047 -0.543681,-0.29728 -0.689629,-0.63342 -0.150752,-2.41185 0.538504,-1.7872 1.859866,-3.22583 2.005115,-2.18306 3.612725,-0.70649 1.173739,1.07806 1.006112,3.02067 -0.163432,1.93803 -1.556106,3.4543 z"
         style="font-size:12.7px;font-family:'Lucida Handwriting';-inkscape-font-specification:'Lucida Handwriting, Normal';fill:#ececec"
         id="path41314" />
      <path
         d="m 54.068783,105.98113 1.346521,2.4281 q 0.291593,0.52526 0.404003,0.6576 0.11241,0.13233 0.30232,0.23138 -0.282054,0.65455 -0.669605,0.98375 -0.245763,0.20876 -0.414378,0.0103 -0.08832,-0.10398 -0.407306,-0.67107 l -1.60742,-2.89808 q -1.424569,0.74631 -1.870194,0.2217 -0.09234,-0.1087 -0.189602,-0.31899 0.867735,-0.013 1.756159,-0.44216 l -1.062957,-1.91228 q -0.260899,-0.46998 -0.405426,-0.64012 -0.140513,-0.16542 -0.370367,-0.20613 0.427855,-0.77026 0.673619,-0.97902 0.293026,-0.24891 0.58208,0.0914 0.06825,0.0803 0.546597,0.95957 l 1.082319,1.94466 q 1.361152,-1.15622 1.655971,-2.56202 0.294819,-1.40581 -0.596431,-2.45503 -0.489787,-0.576596 -1.240588,-0.540931 -0.750089,0.02693 -1.492106,0.657221 -2.211872,1.87886 -1.975652,4.86768 -0.362337,-0.19668 -0.50285,-0.36209 -0.606211,-0.71366 0.147965,-2.41203 0.754888,-1.7071 2.243648,-2.971711 2.259134,-1.919 3.672288,-0.25537 1.031764,1.214641 0.625746,3.121721 -0.401291,1.90307 -1.970397,3.23593 z"
         style="font-size:12.7px;font-family:'Lucida Handwriting';-inkscape-font-specification:'Lucida Handwriting, Normal';fill:#ececec"
         id="path41316" />
      <path
         d="m 65.791756,99.825155 q 0.166992,0.619115 0.0897,1.006115 -0.07729,0.387 -0.907794,1.18697 -0.821901,0.80168 -1.869134,1.50023 -1.645653,1.09773 -2.395822,-0.0269 -0.209909,-0.31468 -0.619505,-1.30868 l -2.373238,-5.736946 q -0.204797,-0.496996 -0.332119,-0.687871 -0.116999,-0.175399 -0.340603,-0.242417 0.514061,-0.715611 0.782318,-0.89455 0.319845,-0.213351 0.564166,0.152923 0.06194,0.09286 0.435401,1.021504 l 2.120252,5.123017 q 0.454342,1.10577 0.708987,1.48752 0.430142,0.64485 1.859126,-0.30835 1.27422,-0.84996 2.278267,-2.272575 z"
         style="font-size:12.7px;font-family:'Lucida Handwriting';-inkscape-font-specification:'Lucida Handwriting, Normal';fill:#ececec"
         id="path41318" />
      <path
         d="m 67.558995,95.305733 0.455252,1.559696 q 0.282055,0.971729 0.473875,1.340277 0.380777,0.731595 1.799961,-0.0071 1.408182,-0.732925 2.220289,-1.791772 0.181916,0.953941 -0.289953,1.444217 -0.286422,0.295883 -1.081548,0.863525 -0.792262,0.573142 -1.254322,0.813633 -1.798733,0.936201 -2.420001,-0.257458 -0.166053,-0.319041 -0.462423,-1.318274 l -0.596279,-2.04556 -0.08251,0.04294 q -0.555572,0.289162 -0.952168,0.803177 -0.0067,-0.751541 0.09997,-1.016767 0.112136,-0.268089 0.535691,-0.488539 l 0.181523,-0.09448 -0.872383,-2.992424 -0.15952,0.08303 q -1.017632,0.529653 -1.548912,1.631089 -0.183043,-1.023263 0.163822,-1.525376 0.273844,-0.387208 2.204594,-1.392117 l 1.639212,-0.85317 q 1.551201,-0.807362 2.358999,-1.619288 -0.07668,0.913765 -0.340426,1.23979 -0.258243,0.323161 -1.385889,0.910073 l -1.77673,0.924745 0.866882,2.995287 1.138647,-0.592638 q 1.193655,-0.621268 1.745783,-1.293133 -0.01045,0.893274 -0.22755,1.188031 -0.2171,0.294756 -1.295239,0.855902 z"
         style="font-size:12.7px;font-family:'Lucida Handwriting';-inkscape-font-specification:'Lucida Handwriting, Normal';fill:#ececec"
         id="path41320" />
      <path
         d="m 76.448692,89.867488 q -0.255822,-0.277263 -0.346665,-0.567224 -0.318874,-1.01782 1.061096,-2.379421 1.385888,-1.363456 3.356435,-1.980812 1.100666,-0.34483 1.906896,-0.136031 0.812148,0.206946 1.025349,0.887465 0.394886,1.26044 -1.051451,2.928762 1.136396,-0.0441 1.907983,0.34451 0.777503,0.386757 1.005536,1.114616 0.448649,1.43205 -0.792502,2.925616 -1.241151,1.493567 -3.454317,2.186934 -1.627329,0.509829 -1.948058,-0.513908 -0.07601,-0.24262 -0.178426,-1.191789 l -0.480056,-4.456953 q -0.05698,-0.534509 -0.123726,-0.747541 -0.06489,-0.207114 -0.260673,-0.33423 0.688422,-0.540595 1.002052,-0.638853 0.366889,-0.114943 0.498518,0.305203 0.03337,0.106516 0.131011,1.10267 l 0.442827,4.1307 q 0.08116,0.715388 0.146048,0.922502 0.233595,0.745613 1.653809,0.300671 1.165759,-0.365223 1.784724,-1.293456 0.623028,-0.936005 0.328254,-1.876897 -0.229886,-0.733777 -0.82123,-1.0034 -0.591344,-0.269623 -1.738789,-0.157076 -0.33644,0.274361 -0.792092,0.417113 -0.153856,0.0482 -0.401326,0.06725 -0.02676,-0.686942 0.159099,-0.985611 0.191778,-0.300522 0.765781,-0.480352 0.147939,-0.04635 0.402038,-0.106461 0.971228,-1.318024 0.687578,-2.223411 -0.33556,-1.071078 -1.968807,-0.559395 -2.645148,0.828703 -3.906916,3.998812 z"
         style="font-size:12.7px;font-family:'Lucida Handwriting';-inkscape-font-specification:'Lucida Handwriting, Normal';fill:#ececec"
         id="path41322" />
      <path
         d="m 94.090228,90.189197 q -0.08705,0.635309 -0.308819,0.961741 -0.221773,0.326431 -1.29808,0.740247 -1.069054,0.418743 -2.30556,0.654807 -1.94308,0.370959 -2.196588,-0.956914 -0.07094,-0.371561 -0.06153,-1.446596 l 0.04583,-6.208282 q 0.0047,-0.537518 -0.03832,-0.762891 -0.03954,-0.207099 -0.219449,-0.355834 0.75198,-0.459221 1.06872,-0.51969 0.377652,-0.0721 0.460217,0.360374 0.02093,0.10964 0.0037,1.110419 l -0.04002,5.544289 q -0.01168,1.195419 0.07437,1.646165 0.14536,0.761395 1.832611,0.439278 1.504517,-0.287231 2.982951,-1.207113 z"
         style="font-size:12.7px;font-family:'Lucida Handwriting';-inkscape-font-specification:'Lucida Handwriting, Normal';fill:#ececec"
         id="path41324" />
      <path
         d="m 99.010533,83.029568 q 0.874078,-1.344469 2.445717,-1.448762 1.3427,-0.0891 2.28002,0.830639 0.93692,0.913553 1.03628,2.410943 0.1548,2.332711 -1.59275,4.375268 -1.74754,2.042558 -4.024563,2.19366 -1.639705,0.10881 -2.782009,-0.90298 -1.136527,-1.018387 -1.246979,-2.682841 -0.119896,-1.806769 1.006229,-3.192823 1.132313,-1.386464 2.878055,-1.583104 z m -0.425499,0.705651 q -1.08373,0.339152 -1.66028,1.297204 -0.576549,0.958051 -0.487859,2.294565 0.09895,1.491203 1.029679,2.405165 0.930313,0.907776 2.273014,0.818675 1.608762,-0.106757 2.739082,-1.710607 1.13032,-1.603851 0.99769,-3.602434 -0.0772,-1.163262 -0.74232,-1.91462 -0.66512,-0.751358 -1.56232,-0.691821 -0.90957,0.06036 -1.528555,0.847211 -0.619395,0.780666 -0.552057,1.795426 0.04763,0.717757 0.428186,1.301555 -0.682657,-0.07899 -0.92761,-0.305118 -0.238766,-0.226533 -0.279416,-0.839102 -0.05297,-0.798196 0.272766,-1.696099 z"
         style="font-size:12.7px;font-family:'Lucida Handwriting';-inkscape-font-specification:'Lucida Handwriting, Normal';fill:#ececec"
         id="path41326" />
      <path
         d="m 106.58841,88.822986 q -0.0512,1.009495 0.47082,1.613407 0.52819,0.604226 1.50672,0.653833 0.86705,0.04396 1.53133,-0.443936 0.66427,-0.487892 0.69975,-1.187726 0.038,-0.749379 -1.30131,-2.133612 l -0.64923,-0.666245 q -1.24523,-1.280117 -1.19343,-2.301999 0.0603,-1.189097 1.0282,-1.909962 0.96791,-0.720864 2.40474,-0.648023 0.76177,0.03862 1.22052,0.297822 0.45907,0.25301 0.44023,0.624603 -0.0185,0.3654 -0.37745,0.831517 -0.48606,-1.067776 -1.69993,-1.129313 -0.75557,-0.0383 -1.29967,0.406007 -0.53758,0.438432 -0.57243,1.125879 -0.0232,0.458299 0.13174,0.708311 0.16116,0.250327 1.00566,1.106536 l 0.53133,0.542294 q 1.45164,1.495483 1.3945,2.622649 -0.0666,1.312962 -1.15098,2.127266 -1.0841,0.808111 -2.66337,0.728049 -1.05904,-0.05369 -1.72757,-0.58431 -0.66233,-0.530308 -0.62402,-1.28588 0.0261,-0.514037 0.89385,-1.097167 z"
         style="font-size:12.7px;font-family:'Lucida Handwriting';-inkscape-font-specification:'Lucida Handwriting, Normal';fill:#ececec"
         id="path41328" />
      <path
         d="m 113.8788,89.353906 q -0.14295,1.000631 0.32185,1.649596 0.47093,0.649842 1.44087,0.788406 0.85944,0.122778 1.56541,-0.302555 0.70597,-0.425333 0.80507,-1.119022 0.10611,-0.742801 -1.10148,-2.243312 l -0.58582,-0.722631 q -1.12341,-1.388259 -0.97871,-2.401168 0.16838,-1.178659 1.19796,-1.808327 1.02957,-0.629669 2.45378,-0.426207 0.75508,0.10787 1.18831,0.407797 0.4341,0.293788 0.38148,0.662119 -0.0517,0.362192 -0.45164,0.793664 -0.38675,-1.107624 -1.58996,-1.279513 -0.74894,-0.106993 -1.33126,0.285892 -0.57529,0.387623 -0.67264,1.069035 -0.0649,0.454275 0.0666,0.717368 0.13768,0.263971 0.90065,1.193569 l 0.47971,0.588453 q 1.30933,1.621535 1.14971,2.738805 -0.18592,1.301435 -1.34002,2.01354 -1.15323,0.705965 -2.71864,0.482333 -1.04974,-0.149965 -1.66713,-0.739296 -0.61125,-0.588453 -0.50426,-1.337392 0.0728,-0.509524 0.99011,-1.011154 z"
         style="font-size:12.7px;font-family:'Lucida Handwriting';-inkscape-font-specification:'Lucida Handwriting, Normal';fill:#ececec"
         id="path41330" />
      <path
         d="m 126.58398,85.755652 q 1.25602,-0.996996 2.77934,-0.596427 1.30141,0.342219 1.89785,1.512154 0.59802,1.163938 0.21638,2.615282 -0.59455,2.260977 -2.90061,3.642291 -2.30606,1.381314 -4.51307,0.800962 -1.58928,-0.417918 -2.35082,-1.740272 -0.75398,-1.326774 -0.32975,-2.940045 0.46049,-1.751208 1.96872,-2.707534 1.51422,-0.95475 3.23196,-0.586411 z m -0.6277,0.533849 q -1.13533,-0.02283 -1.98645,0.702332 -0.85112,0.725163 -1.19176,2.020577 -0.38007,1.445346 0.21195,2.607707 0.5936,1.156363 1.89501,1.498582 1.5593,0.410032 3.14071,-0.751469 1.58142,-1.1615 2.0908,-3.098624 0.29649,-1.12749 -0.0954,-2.05127 -0.39187,-0.923781 -1.26148,-1.152452 -0.8816,-0.231826 -1.71855,0.317527 -0.83538,0.543357 -1.09401,1.526912 -0.18294,0.695685 -0.008,1.370157 -0.62216,-0.291844 -0.78256,-0.584089 -0.1544,-0.290668 0.002,-0.884399 0.20344,-0.77365 0.79763,-1.521491 z"
         style="font-size:12.7px;font-family:'Lucida Handwriting';-inkscape-font-specification:'Lucida Handwriting, Normal';fill:#ececec"
         id="path41332" />
      <path
         d="m 135.50453,90.883048 -2.33926,3.433171 q -0.45034,0.664423 -0.62474,1.075436 -0.18168,0.428138 0.0762,0.820499 -0.70458,-0.06994 -1.0528,-0.217699 -0.58227,-0.247073 -0.38364,-0.715171 0.22043,-0.519474 1.12491,-1.698511 l 3.32537,-4.328324 0.0712,-0.818585 q 0.1115,-1.374055 -0.15383,-1.796518 0.69006,-0.118101 1.11249,0.06115 0.31397,0.133225 0.32586,0.724335 0.02,0.587823 -0.23807,2.862975 -0.0521,0.456172 -0.0715,0.724133 l -0.0184,0.329026 q -0.20538,2.897057 0.43968,3.170775 0.70215,0.297941 2.81949,-1.215224 2.12548,-1.516452 2.79348,-2.789094 0.72327,0.05766 1.02582,0.18604 0.55944,0.237384 0.29783,0.853903 -0.0872,0.205507 -0.61575,1.085989 -0.48651,0.797278 -0.75589,1.289243 l -1.97322,3.554809 q -0.2071,0.376931 -0.36454,0.747984 -0.48204,1.135993 -0.13834,1.611916 -0.76238,0.161517 -1.1791,-0.01531 -0.67932,-0.288252 -0.081,-1.698254 0.2398,-0.565142 0.67182,-1.345124 l 2.49987,-4.510198 q -1.54649,1.755394 -3.23011,2.738549 -1.68119,0.977445 -2.52605,0.618947 -0.66219,-0.280985 -0.88819,-1.542275 -0.22359,-1.266999 0.0504,-3.198591 z"
         style="font-size:12.7px;font-family:'Lucida Handwriting';-inkscape-font-specification:'Lucida Handwriting, Normal';fill:#ececec"
         id="path41334" />
      <path
         d="m 150.12975,100.88969 -3.05101,3.1281 q -0.4196,0.42996 -0.51414,0.5756 -0.0946,0.14563 -0.13498,0.35597 -0.69753,-0.0758 -1.13444,-0.35941 -0.27047,-0.17558 -0.12865,-0.39403 0.0743,-0.11443 0.52272,-0.57743 l 3.34823,-3.43789 -0.078,-0.0507 q -0.46811,-0.30389 -1.15424,-0.431402 0.61279,-0.385881 0.90653,-0.416984 0.30232,-0.03293 0.72883,0.243952 l 0.14043,0.09117 2.64336,-2.705163 -0.11443,-0.07428 q -1.13388,-0.736098 -2.20665,-0.552729 0.73635,-0.690112 1.41463,-0.641625 0.47862,0.03716 2.31986,1.232477 l 1.36794,0.888045 q 1.52917,0.99272 2.719,1.38069 -0.69053,0.357589 -1.16915,0.320427 -0.47004,-0.03899 -1.19822,-0.51171 l -0.45433,-0.302342 -1.59159,-1.033239 -2.63816,2.708543 1.12348,0.72934 q 1.04545,0.6787 1.89902,0.85577 -0.63121,0.42567 -1.06357,0.37418 -0.42715,-0.0481 -1.37898,-0.66603 z"
         style="font-size:12.7px;font-family:'Lucida Handwriting';-inkscape-font-specification:'Lucida Handwriting, Normal';fill:#ececec"
         id="path41336" />
      <path
         d="m 155.4065,105.71936 -0.24503,0.10426 q -1.52645,0.6357 -2.03195,1.25569 -0.14891,0.18264 -0.1506,0.4693 -0.14669,-0.0556 -0.67189,-0.23577 -0.2423,-0.0855 -0.41051,-0.22269 -0.33643,-0.27431 -0.0739,-0.59632 0.54469,-0.66805 2.49296,-1.35989 l 0.34884,-0.12363 -0.24512,-0.19985 q -0.78821,-0.64265 -1.42061,-0.75021 0.88813,-0.62807 1.8782,0.17916 l 0.58421,0.50033 0.28651,-0.0864 q 1.67935,-0.51903 4.79526,-1.17098 1.05289,-0.2217 1.44173,-0.1687 0.38885,0.053 1.2396,0.53062 -0.84472,0.75147 -1.45211,1.49642 -1.61055,1.97533 -2.80761,4.37579 -0.6592,1.3188 -0.40749,2.0601 -0.81621,0.0786 -1.13822,-0.18393 -0.75937,-0.61914 0.95119,-3.56107 -0.86355,-0.56006 -1.67099,-1.21838 z m 0.80844,-0.28499 0.95124,0.81559 q 0.99488,0.81115 1.57841,1.17491 1.15435,-1.86721 2.05955,-2.97743 l 0.2987,-0.35654 q -0.32318,0.0725 -1.42449,0.29476 -1.99893,0.4105 -3.20966,0.94356 z"
         style="font-size:12.7px;font-family:'Lucida Handwriting';-inkscape-font-specification:'Lucida Handwriting, Normal';fill:#ececec"
         id="path41338" />
      <path
         d="m 163.55421,108.93607 q 0.0354,-0.38514 0.32705,-0.66337 0.74484,-0.71054 2.59375,-0.0661 1.85318,0.64896 3.23146,2.09377 2.12305,2.22555 0.70516,3.57814 -0.68651,0.6549 -1.6291,0.63707 -0.93383,-0.0176 -2.58861,-0.71016 -1.42241,3.40518 -0.68191,4.18143 0.38951,0.40832 1.409,0.32708 -0.0908,0.12945 -0.13564,0.17225 -0.37691,0.35955 -1.20898,0.30485 -0.82758,-0.059 -1.22137,-0.47178 -1.00161,-1.04996 0.7268,-4.96988 -0.29416,-0.1736 -0.47822,-0.36655 -0.0899,-0.0942 -0.13103,-0.20923 1.00641,-0.64297 1.65275,0.0346 0.12841,0.13461 0.2629,0.3834 1.89752,1.0009 3.04171,-0.0906 0.42177,-0.40236 0.28864,-1.08096 -0.12437,-0.67839 -0.74502,-1.329 -1.05296,-1.1038 -2.5765,-1.59587 -1.51906,-0.49634 -2.84284,-0.15911 z m -3.16144,6.10113 q -0.66543,-0.23938 -1.0207,-0.6118 -0.22258,-0.23332 -0.0341,-0.4131 0.0987,-0.0942 0.65932,-0.43184 l 5.16524,-3.28188 q 0.44968,-0.28327 0.6157,-0.44164 0.15704,-0.14981 0.18443,-0.38163 0.79364,0.38275 1.01622,0.61607 0.26966,0.28268 -0.0534,0.59087 -0.0763,0.0728 -0.92648,0.60099 l -4.74656,3.01103 q -0.49862,0.31282 -0.66912,0.47548 -0.0942,0.0899 -0.19052,0.26745 z"
         style="font-size:12.7px;font-family:'Lucida Handwriting';-inkscape-font-specification:'Lucida Handwriting, Normal';fill:#ececec"
         id="path41340" />
      <path
         d="m 172.58291,119.0013 -3.78561,1.71112 q -0.73061,0.33239 -1.09365,0.5923 -0.37816,0.27073 -0.36252,0.74 -0.5649,-0.42686 -0.7851,-0.73444 -0.3682,-0.5143 0.0453,-0.81031 0.45884,-0.32849 1.84522,-0.86343 l 5.09372,-1.96124 0.48732,-0.66156 q 0.81122,-1.11463 0.80491,-1.61346 0.65051,0.25881 0.91763,0.63193 0.19854,0.27732 -0.0993,0.78802 -0.28923,0.51213 -1.69514,2.31944 -0.28219,0.36218 -0.43839,0.58077 l -0.18713,0.27125 q -1.685,2.36556 -1.27709,2.93533 0.444,0.62019 3.03966,0.43212 2.60431,-0.18663 3.83764,-0.9247 0.58725,0.42612 0.77857,0.69336 0.35376,0.49414 -0.19079,0.884 -0.18152,0.12995 -1.09147,0.60599 -0.8307,0.42693 -1.31699,0.70643 l -3.53659,2.00569 q -0.37318,0.21378 -0.70093,0.44842 -1.00339,0.71835 -0.95807,1.30365 -0.73485,-0.25944 -0.99836,-0.62752 -0.42957,-0.60003 0.81585,-1.49165 0.49918,-0.35737 1.27436,-0.79794 l 4.48396,-2.54664 q -2.23468,0.69229 -4.18396,0.65403 -1.94423,-0.0419 -2.47849,-0.78812 -0.41873,-0.5849 0.0457,-1.77916 0.46943,-1.19788 1.70987,-2.70368 z"
         style="font-size:12.7px;font-family:'Lucida Handwriting';-inkscape-font-specification:'Lucida Handwriting, Normal';fill:#ececec"
         id="path41342" />
    </g>
  </g>
</svg>
